<svg xmlns="http://www.w3.org/2000/svg" viewBox="0 28.75 256 204.5" fill="none" stroke-linecap="round" stroke-linejoin="round">
<defs>
  <pattern id="hatchL" patternUnits="userSpaceOnUse" width="5.5" height="5.5" patternTransform="rotate(45)">
    <rect width="5.5" height="5.5" fill="#ffffff"/>
    <line x1="0.9" y1="0" x2="0.9" y2="5.5" stroke="#c9d5f6" stroke-width="1.8"/>
  </pattern>
  <pattern id="hatchD" patternUnits="userSpaceOnUse" width="6" height="6" patternTransform="rotate(45)">
    <rect width="6" height="6" fill="#ffffff"/>
    <line x1="0.9" y1="0" x2="0.9" y2="6" stroke="#1f5e8c" stroke-width="1.7"/>
  </pattern>
</defs>
<rect x="22" y="46" width="220" height="176" rx="18" fill="#e3eafc"/><rect x="16" y="40" width="220" height="176" rx="18" fill="url(#hatchL)"/><g transform="translate(4,4)"><path d="M76 92 v87 M76 111 h16 M76 145 h16 M76 179 h16" fill="none" stroke="none" stroke-width="2.5"/><rect x="64" y="58" width="92" height="32" rx="9" fill="#e3eafc" stroke="none" stroke-width="2.8"/><circle cx="80" cy="74" r="4.5" fill="none"/><path d="M92 74 h44" stroke="none" stroke-width="2.5"/><rect x="92" y="98" width="96" height="26" rx="8" fill="#e3eafc" stroke="none" stroke-width="2.8"/><circle cx="106" cy="111" r="4" fill="none"/><path d="M117 111 h49" stroke="none" stroke-width="2.5"/><rect x="92" y="132" width="96" height="26" rx="8" fill="#e3eafc" stroke="none" stroke-width="2.8"/><circle cx="106" cy="145" r="4" fill="none"/><path d="M117 145 h49" stroke="none" stroke-width="2.5"/><rect x="92" y="166" width="96" height="26" rx="8" fill="#e3eafc" stroke="none" stroke-width="2.8"/><circle cx="106" cy="179" r="4" fill="none"/><path d="M117 179 h49" stroke="none" stroke-width="2.5"/></g><g transform="translate(0,0)"><path d="M76 92 v87 M76 111 h16 M76 145 h16 M76 179 h16" fill="none" stroke="#1f5e8c" stroke-width="2.5"/><rect x="64" y="58" width="92" height="32" rx="9" fill="#ffffff" stroke="#1f5e8c" stroke-width="2.8"/><circle cx="80" cy="74" r="4.5" fill="#1f5e8c"/><path d="M92 74 h44" stroke="#1f5e8c" stroke-width="2.5"/><rect x="92" y="98" width="96" height="26" rx="8" fill="#ffffff" stroke="#1f5e8c" stroke-width="2.8"/><circle cx="106" cy="111" r="4" fill="#1f5e8c"/><path d="M117 111 h49" stroke="#1f5e8c" stroke-width="2.5"/><rect x="92" y="132" width="96" height="26" rx="8" fill="#ffffff" stroke="#1f5e8c" stroke-width="2.8"/><circle cx="106" cy="145" r="4" fill="#1f5e8c"/><path d="M117 145 h49" stroke="#1f5e8c" stroke-width="2.5"/><rect x="92" y="166" width="96" height="26" rx="8" fill="#ffffff" stroke="#1f5e8c" stroke-width="2.8"/><circle cx="106" cy="179" r="4" fill="#1f5e8c"/><path d="M117 179 h49" stroke="#1f5e8c" stroke-width="2.5"/></g></svg>